<mxfile host="Electron" agent="Mozilla/5.0 (Windows NT 10.0; Win64; x64) AppleWebKit/537.36 (KHTML, like Gecko) draw.io/28.1.2 Chrome/138.0.7204.243 Electron/37.4.0 Safari/537.36" version="28.1.2">
  <diagram name="Page-1" id="c0mtsNw2diYANQxIEjlJ">
    <mxGraphModel dx="2926" dy="1969" grid="1" gridSize="10" guides="1" tooltips="1" connect="1" arrows="1" fold="1" page="1" pageScale="1" pageWidth="850" pageHeight="1100" math="0" shadow="0">
      <root>
        <mxCell id="0" />
        <mxCell id="1" parent="0" />
        <mxCell id="vtHrl4O6iVLPqZq_BZib-3" value="" style="edgeStyle=orthogonalEdgeStyle;rounded=0;orthogonalLoop=1;jettySize=auto;html=1;" edge="1" parent="1" source="vtHrl4O6iVLPqZq_BZib-1" target="vtHrl4O6iVLPqZq_BZib-2">
          <mxGeometry relative="1" as="geometry" />
        </mxCell>
        <mxCell id="vtHrl4O6iVLPqZq_BZib-1" value="Start" style="ellipse;whiteSpace=wrap;html=1;" vertex="1" parent="1">
          <mxGeometry x="7" width="120" height="80" as="geometry" />
        </mxCell>
        <mxCell id="vtHrl4O6iVLPqZq_BZib-10" value="" style="edgeStyle=orthogonalEdgeStyle;rounded=0;orthogonalLoop=1;jettySize=auto;html=1;" edge="1" parent="1" source="vtHrl4O6iVLPqZq_BZib-2" target="vtHrl4O6iVLPqZq_BZib-9">
          <mxGeometry relative="1" as="geometry" />
        </mxCell>
        <mxCell id="vtHrl4O6iVLPqZq_BZib-2" value="Input&lt;div&gt;&amp;nbsp;Register, Login, dan Logout&lt;/div&gt;" style="shape=parallelogram;perimeter=parallelogramPerimeter;whiteSpace=wrap;html=1;fixedSize=1;" vertex="1" parent="1">
          <mxGeometry y="120" width="135" height="60" as="geometry" />
        </mxCell>
        <mxCell id="vtHrl4O6iVLPqZq_BZib-13" value="" style="edgeStyle=orthogonalEdgeStyle;rounded=0;orthogonalLoop=1;jettySize=auto;html=1;" edge="1" parent="1" source="vtHrl4O6iVLPqZq_BZib-9" target="vtHrl4O6iVLPqZq_BZib-12">
          <mxGeometry relative="1" as="geometry" />
        </mxCell>
        <mxCell id="vtHrl4O6iVLPqZq_BZib-18" value="" style="edgeStyle=orthogonalEdgeStyle;rounded=0;orthogonalLoop=1;jettySize=auto;html=1;" edge="1" parent="1" source="vtHrl4O6iVLPqZq_BZib-9" target="vtHrl4O6iVLPqZq_BZib-17">
          <mxGeometry relative="1" as="geometry" />
        </mxCell>
        <mxCell id="vtHrl4O6iVLPqZq_BZib-9" value="Registrasi" style="rhombus;whiteSpace=wrap;html=1;" vertex="1" parent="1">
          <mxGeometry x="15" y="220" width="105" height="80" as="geometry" />
        </mxCell>
        <mxCell id="vtHrl4O6iVLPqZq_BZib-15" value="" style="edgeStyle=orthogonalEdgeStyle;rounded=0;orthogonalLoop=1;jettySize=auto;html=1;" edge="1" parent="1" source="vtHrl4O6iVLPqZq_BZib-12" target="vtHrl4O6iVLPqZq_BZib-14">
          <mxGeometry relative="1" as="geometry" />
        </mxCell>
        <mxCell id="vtHrl4O6iVLPqZq_BZib-30" value="" style="edgeStyle=orthogonalEdgeStyle;rounded=0;orthogonalLoop=1;jettySize=auto;html=1;" edge="1" parent="1" source="vtHrl4O6iVLPqZq_BZib-12" target="vtHrl4O6iVLPqZq_BZib-29">
          <mxGeometry relative="1" as="geometry" />
        </mxCell>
        <mxCell id="vtHrl4O6iVLPqZq_BZib-12" value="Login&lt;div&gt;Customer&lt;/div&gt;" style="rhombus;whiteSpace=wrap;html=1;" vertex="1" parent="1">
          <mxGeometry x="247.5" y="220" width="105" height="80" as="geometry" />
        </mxCell>
        <mxCell id="vtHrl4O6iVLPqZq_BZib-35" value="" style="edgeStyle=orthogonalEdgeStyle;rounded=0;orthogonalLoop=1;jettySize=auto;html=1;" edge="1" parent="1" source="vtHrl4O6iVLPqZq_BZib-14" target="vtHrl4O6iVLPqZq_BZib-34">
          <mxGeometry relative="1" as="geometry" />
        </mxCell>
        <mxCell id="vtHrl4O6iVLPqZq_BZib-52" value="" style="edgeStyle=orthogonalEdgeStyle;rounded=0;orthogonalLoop=1;jettySize=auto;html=1;" edge="1" parent="1" source="vtHrl4O6iVLPqZq_BZib-14" target="vtHrl4O6iVLPqZq_BZib-50">
          <mxGeometry relative="1" as="geometry" />
        </mxCell>
        <mxCell id="vtHrl4O6iVLPqZq_BZib-14" value="Login&lt;div&gt;Admin&lt;/div&gt;" style="rhombus;whiteSpace=wrap;html=1;" vertex="1" parent="1">
          <mxGeometry x="490" y="220" width="105" height="80" as="geometry" />
        </mxCell>
        <mxCell id="vtHrl4O6iVLPqZq_BZib-24" style="edgeStyle=orthogonalEdgeStyle;rounded=0;orthogonalLoop=1;jettySize=auto;html=1;exitX=0.5;exitY=1;exitDx=0;exitDy=0;" edge="1" parent="1" source="vtHrl4O6iVLPqZq_BZib-17" target="vtHrl4O6iVLPqZq_BZib-21">
          <mxGeometry relative="1" as="geometry" />
        </mxCell>
        <mxCell id="vtHrl4O6iVLPqZq_BZib-17" value="Input&amp;nbsp;&lt;div&gt;Username dan Password Baru&lt;/div&gt;" style="shape=parallelogram;perimeter=parallelogramPerimeter;whiteSpace=wrap;html=1;fixedSize=1;" vertex="1" parent="1">
          <mxGeometry x="0.75" y="340" width="132.5" height="70" as="geometry" />
        </mxCell>
        <mxCell id="vtHrl4O6iVLPqZq_BZib-21" value="" style="verticalLabelPosition=bottom;verticalAlign=top;html=1;shape=mxgraph.flowchart.on-page_reference;" vertex="1" parent="1">
          <mxGeometry x="37.5" y="440" width="60" height="60" as="geometry" />
        </mxCell>
        <mxCell id="vtHrl4O6iVLPqZq_BZib-22" value="1" style="text;html=1;align=center;verticalAlign=middle;resizable=0;points=[];autosize=1;strokeColor=none;fillColor=none;" vertex="1" parent="1">
          <mxGeometry x="52.5" y="455" width="30" height="30" as="geometry" />
        </mxCell>
        <mxCell id="vtHrl4O6iVLPqZq_BZib-27" style="edgeStyle=orthogonalEdgeStyle;rounded=0;orthogonalLoop=1;jettySize=auto;html=1;exitX=0.5;exitY=1;exitDx=0;exitDy=0;exitPerimeter=0;" edge="1" parent="1" source="vtHrl4O6iVLPqZq_BZib-25" target="vtHrl4O6iVLPqZq_BZib-12">
          <mxGeometry relative="1" as="geometry" />
        </mxCell>
        <mxCell id="vtHrl4O6iVLPqZq_BZib-61" style="edgeStyle=orthogonalEdgeStyle;rounded=0;orthogonalLoop=1;jettySize=auto;html=1;exitX=0.5;exitY=1;exitDx=0;exitDy=0;exitPerimeter=0;" edge="1" parent="1" source="vtHrl4O6iVLPqZq_BZib-25" target="vtHrl4O6iVLPqZq_BZib-14">
          <mxGeometry relative="1" as="geometry" />
        </mxCell>
        <mxCell id="vtHrl4O6iVLPqZq_BZib-25" value="" style="verticalLabelPosition=bottom;verticalAlign=top;html=1;shape=mxgraph.flowchart.on-page_reference;" vertex="1" parent="1">
          <mxGeometry x="390" y="90" width="60" height="60" as="geometry" />
        </mxCell>
        <mxCell id="vtHrl4O6iVLPqZq_BZib-26" value="1" style="text;html=1;align=center;verticalAlign=middle;resizable=0;points=[];autosize=1;strokeColor=none;fillColor=none;" vertex="1" parent="1">
          <mxGeometry x="405" y="105" width="30" height="30" as="geometry" />
        </mxCell>
        <mxCell id="vtHrl4O6iVLPqZq_BZib-37" value="" style="edgeStyle=orthogonalEdgeStyle;rounded=0;orthogonalLoop=1;jettySize=auto;html=1;" edge="1" parent="1" source="vtHrl4O6iVLPqZq_BZib-29" target="vtHrl4O6iVLPqZq_BZib-36">
          <mxGeometry relative="1" as="geometry" />
        </mxCell>
        <mxCell id="vtHrl4O6iVLPqZq_BZib-29" value="Input&amp;nbsp;&lt;span style=&quot;background-color: transparent; color: light-dark(rgb(0, 0, 0), rgb(255, 255, 255));&quot;&gt;Nama dan Username&lt;/span&gt;" style="shape=parallelogram;perimeter=parallelogramPerimeter;whiteSpace=wrap;html=1;fixedSize=1;" vertex="1" parent="1">
          <mxGeometry x="240" y="345" width="120" height="60" as="geometry" />
        </mxCell>
        <mxCell id="vtHrl4O6iVLPqZq_BZib-65" style="edgeStyle=orthogonalEdgeStyle;rounded=0;orthogonalLoop=1;jettySize=auto;html=1;exitX=0.5;exitY=1;exitDx=0;exitDy=0;" edge="1" parent="1" source="vtHrl4O6iVLPqZq_BZib-34" target="vtHrl4O6iVLPqZq_BZib-64">
          <mxGeometry relative="1" as="geometry" />
        </mxCell>
        <mxCell id="vtHrl4O6iVLPqZq_BZib-34" value="Output&lt;div&gt;Berhasil Logout&lt;/div&gt;" style="shape=parallelogram;perimeter=parallelogramPerimeter;whiteSpace=wrap;html=1;fixedSize=1;" vertex="1" parent="1">
          <mxGeometry x="710" y="230" width="120" height="60" as="geometry" />
        </mxCell>
        <mxCell id="vtHrl4O6iVLPqZq_BZib-41" value="" style="edgeStyle=orthogonalEdgeStyle;rounded=0;orthogonalLoop=1;jettySize=auto;html=1;" edge="1" parent="1" source="vtHrl4O6iVLPqZq_BZib-36" target="vtHrl4O6iVLPqZq_BZib-40">
          <mxGeometry relative="1" as="geometry" />
        </mxCell>
        <mxCell id="vtHrl4O6iVLPqZq_BZib-36" value="Output&amp;nbsp;&lt;div&gt;Tampilan List&lt;div&gt;Produk&lt;/div&gt;&lt;/div&gt;" style="shape=parallelogram;perimeter=parallelogramPerimeter;whiteSpace=wrap;html=1;fixedSize=1;" vertex="1" parent="1">
          <mxGeometry x="240" y="450" width="120" height="60" as="geometry" />
        </mxCell>
        <mxCell id="vtHrl4O6iVLPqZq_BZib-48" value="" style="edgeStyle=orthogonalEdgeStyle;rounded=0;orthogonalLoop=1;jettySize=auto;html=1;" edge="1" parent="1" source="vtHrl4O6iVLPqZq_BZib-40" target="vtHrl4O6iVLPqZq_BZib-47">
          <mxGeometry relative="1" as="geometry" />
        </mxCell>
        <mxCell id="vtHrl4O6iVLPqZq_BZib-40" value="Hitung Jumlah Produk" style="whiteSpace=wrap;html=1;" vertex="1" parent="1">
          <mxGeometry x="240" y="550" width="120" height="60" as="geometry" />
        </mxCell>
        <mxCell id="vtHrl4O6iVLPqZq_BZib-42" value="" style="endArrow=classic;html=1;rounded=0;" edge="1" parent="1">
          <mxGeometry width="50" height="50" relative="1" as="geometry">
            <mxPoint x="-20" y="135" as="sourcePoint" />
            <mxPoint x="40" y="135" as="targetPoint" />
          </mxGeometry>
        </mxCell>
        <mxCell id="vtHrl4O6iVLPqZq_BZib-44" value="" style="endArrow=classic;html=1;rounded=0;" edge="1" parent="1">
          <mxGeometry width="50" height="50" relative="1" as="geometry">
            <mxPoint x="-20" y="360" as="sourcePoint" />
            <mxPoint x="40" y="360" as="targetPoint" />
          </mxGeometry>
        </mxCell>
        <mxCell id="vtHrl4O6iVLPqZq_BZib-45" value="" style="endArrow=classic;html=1;rounded=0;" edge="1" parent="1">
          <mxGeometry width="50" height="50" relative="1" as="geometry">
            <mxPoint x="220" y="360" as="sourcePoint" />
            <mxPoint x="280" y="360" as="targetPoint" />
          </mxGeometry>
        </mxCell>
        <mxCell id="vtHrl4O6iVLPqZq_BZib-46" value="" style="endArrow=classic;html=1;rounded=0;" edge="1" parent="1">
          <mxGeometry width="50" height="50" relative="1" as="geometry">
            <mxPoint x="315" y="500" as="sourcePoint" />
            <mxPoint x="375" y="500" as="targetPoint" />
          </mxGeometry>
        </mxCell>
        <mxCell id="vtHrl4O6iVLPqZq_BZib-67" style="edgeStyle=orthogonalEdgeStyle;rounded=0;orthogonalLoop=1;jettySize=auto;html=1;exitX=0.5;exitY=1;exitDx=0;exitDy=0;" edge="1" parent="1" source="vtHrl4O6iVLPqZq_BZib-47" target="vtHrl4O6iVLPqZq_BZib-64">
          <mxGeometry relative="1" as="geometry" />
        </mxCell>
        <mxCell id="vtHrl4O6iVLPqZq_BZib-47" value="Output&lt;div&gt;Total Seluruh&lt;/div&gt;&lt;div&gt;Harga Produk&lt;/div&gt;" style="shape=parallelogram;perimeter=parallelogramPerimeter;whiteSpace=wrap;html=1;fixedSize=1;" vertex="1" parent="1">
          <mxGeometry x="240" y="650" width="120" height="60" as="geometry" />
        </mxCell>
        <mxCell id="vtHrl4O6iVLPqZq_BZib-49" value="" style="endArrow=classic;html=1;rounded=0;" edge="1" parent="1">
          <mxGeometry width="50" height="50" relative="1" as="geometry">
            <mxPoint x="315" y="700" as="sourcePoint" />
            <mxPoint x="375" y="700" as="targetPoint" />
          </mxGeometry>
        </mxCell>
        <mxCell id="vtHrl4O6iVLPqZq_BZib-55" value="" style="edgeStyle=orthogonalEdgeStyle;rounded=0;orthogonalLoop=1;jettySize=auto;html=1;" edge="1" parent="1" source="vtHrl4O6iVLPqZq_BZib-50" target="vtHrl4O6iVLPqZq_BZib-53">
          <mxGeometry relative="1" as="geometry" />
        </mxCell>
        <mxCell id="vtHrl4O6iVLPqZq_BZib-50" value="Input&amp;nbsp;&lt;span style=&quot;background-color: transparent; color: light-dark(rgb(0, 0, 0), rgb(255, 255, 255));&quot;&gt;Nama dan Username&lt;/span&gt;" style="shape=parallelogram;perimeter=parallelogramPerimeter;whiteSpace=wrap;html=1;fixedSize=1;" vertex="1" parent="1">
          <mxGeometry x="482.5" y="345" width="120" height="60" as="geometry" />
        </mxCell>
        <mxCell id="vtHrl4O6iVLPqZq_BZib-51" value="" style="endArrow=classic;html=1;rounded=0;" edge="1" parent="1">
          <mxGeometry width="50" height="50" relative="1" as="geometry">
            <mxPoint x="470" y="360" as="sourcePoint" />
            <mxPoint x="530" y="360" as="targetPoint" />
          </mxGeometry>
        </mxCell>
        <mxCell id="vtHrl4O6iVLPqZq_BZib-57" value="" style="edgeStyle=orthogonalEdgeStyle;rounded=0;orthogonalLoop=1;jettySize=auto;html=1;" edge="1" parent="1" source="vtHrl4O6iVLPqZq_BZib-53" target="vtHrl4O6iVLPqZq_BZib-56">
          <mxGeometry relative="1" as="geometry" />
        </mxCell>
        <mxCell id="vtHrl4O6iVLPqZq_BZib-53" value="Output&amp;nbsp;&lt;div&gt;Tampilan Menu&lt;/div&gt;&lt;div&gt;Admin&lt;/div&gt;" style="shape=parallelogram;perimeter=parallelogramPerimeter;whiteSpace=wrap;html=1;fixedSize=1;" vertex="1" parent="1">
          <mxGeometry x="482.5" y="450" width="120" height="60" as="geometry" />
        </mxCell>
        <mxCell id="vtHrl4O6iVLPqZq_BZib-54" value="" style="endArrow=classic;html=1;rounded=0;" edge="1" parent="1">
          <mxGeometry width="50" height="50" relative="1" as="geometry">
            <mxPoint x="550" y="500" as="sourcePoint" />
            <mxPoint x="610" y="500" as="targetPoint" />
          </mxGeometry>
        </mxCell>
        <mxCell id="vtHrl4O6iVLPqZq_BZib-60" value="" style="edgeStyle=orthogonalEdgeStyle;rounded=0;orthogonalLoop=1;jettySize=auto;html=1;" edge="1" parent="1" source="vtHrl4O6iVLPqZq_BZib-56" target="vtHrl4O6iVLPqZq_BZib-58">
          <mxGeometry relative="1" as="geometry" />
        </mxCell>
        <mxCell id="vtHrl4O6iVLPqZq_BZib-56" value="Tambah Stok Produk + Stok Tersedia" style="whiteSpace=wrap;html=1;" vertex="1" parent="1">
          <mxGeometry x="482.5" y="550" width="120" height="60" as="geometry" />
        </mxCell>
        <mxCell id="vtHrl4O6iVLPqZq_BZib-66" style="edgeStyle=orthogonalEdgeStyle;rounded=0;orthogonalLoop=1;jettySize=auto;html=1;exitX=0.5;exitY=1;exitDx=0;exitDy=0;" edge="1" parent="1" source="vtHrl4O6iVLPqZq_BZib-58" target="vtHrl4O6iVLPqZq_BZib-64">
          <mxGeometry relative="1" as="geometry" />
        </mxCell>
        <mxCell id="vtHrl4O6iVLPqZq_BZib-58" value="Output&lt;div&gt;Jumlah Seluruh&lt;/div&gt;&lt;div&gt;Stok Produk&lt;/div&gt;" style="shape=parallelogram;perimeter=parallelogramPerimeter;whiteSpace=wrap;html=1;fixedSize=1;" vertex="1" parent="1">
          <mxGeometry x="482.5" y="650" width="120" height="60" as="geometry" />
        </mxCell>
        <mxCell id="vtHrl4O6iVLPqZq_BZib-59" value="" style="endArrow=classic;html=1;rounded=0;" edge="1" parent="1">
          <mxGeometry width="50" height="50" relative="1" as="geometry">
            <mxPoint x="550" y="700" as="sourcePoint" />
            <mxPoint x="610" y="700" as="targetPoint" />
          </mxGeometry>
        </mxCell>
        <mxCell id="vtHrl4O6iVLPqZq_BZib-62" value="End" style="ellipse;whiteSpace=wrap;html=1;" vertex="1" parent="1">
          <mxGeometry x="7" y="890" width="120" height="80" as="geometry" />
        </mxCell>
        <mxCell id="vtHrl4O6iVLPqZq_BZib-64" value="" style="verticalLabelPosition=bottom;verticalAlign=top;html=1;shape=mxgraph.flowchart.on-page_reference;" vertex="1" parent="1">
          <mxGeometry x="740" y="790" width="60" height="60" as="geometry" />
        </mxCell>
        <mxCell id="vtHrl4O6iVLPqZq_BZib-68" value="2" style="text;html=1;align=center;verticalAlign=middle;resizable=0;points=[];autosize=1;strokeColor=none;fillColor=none;" vertex="1" parent="1">
          <mxGeometry x="755" y="805" width="30" height="30" as="geometry" />
        </mxCell>
        <mxCell id="vtHrl4O6iVLPqZq_BZib-71" style="edgeStyle=orthogonalEdgeStyle;rounded=0;orthogonalLoop=1;jettySize=auto;html=1;exitX=0.5;exitY=1;exitDx=0;exitDy=0;exitPerimeter=0;" edge="1" parent="1" source="vtHrl4O6iVLPqZq_BZib-69" target="vtHrl4O6iVLPqZq_BZib-62">
          <mxGeometry relative="1" as="geometry" />
        </mxCell>
        <mxCell id="vtHrl4O6iVLPqZq_BZib-69" value="" style="verticalLabelPosition=bottom;verticalAlign=top;html=1;shape=mxgraph.flowchart.on-page_reference;" vertex="1" parent="1">
          <mxGeometry x="37" y="790" width="60" height="60" as="geometry" />
        </mxCell>
        <mxCell id="vtHrl4O6iVLPqZq_BZib-70" value="2" style="text;html=1;align=center;verticalAlign=middle;resizable=0;points=[];autosize=1;strokeColor=none;fillColor=none;" vertex="1" parent="1">
          <mxGeometry x="52" y="805" width="30" height="30" as="geometry" />
        </mxCell>
      </root>
    </mxGraphModel>
  </diagram>
</mxfile>
